<?xml version="1.0" standalone="no"?>
<!DOCTYPE svg PUBLIC "-//W3C//DTD SVG 20010904//EN"
 "http://www.w3.org/TR/2001/REC-SVG-20010904/DTD/svg10.dtd">
<svg version="1.0" xmlns="http://www.w3.org/2000/svg"
 width="700.000000pt" height="700.000000pt" viewBox="0 0 700.000000 700.000000"
 preserveAspectRatio="xMidYMid meet">
<metadata>
Created by potrace 1.14, written by Peter Selinger 2001-2017
</metadata>
<g transform="translate(0.000000,700.000000) scale(0.100000,-0.100000)"
fill="#000000" stroke="none">
<path d="M3145 6989 c-115 -12 -265 -39 -265 -49 0 -5 33 -93 74 -197 249
-632 395 -1176 482 -1791 25 -171 27 -222 32 -599 3 -341 7 -413 18 -413 22 0
134 45 219 88 232 118 579 418 764 660 253 333 473 826 601 1344 45 181 110
492 110 525 0 16 -20 31 -87 66 -395 203 -888 342 -1303 367 -174 11 -534 11
-645 -1z"/>
<path d="M1870 6602 c-679 -371 -1176 -881 -1507 -1547 -166 -333 -262 -632
-330 -1031 -26 -152 -27 -174 -27 -514 0 -378 4 -431 60 -703 86 -424 272
-881 495 -1215 69 -103 241 -332 267 -355 19 -18 22 -15 169 135 695 711 1251
1497 1433 2023 40 118 89 334 110 490 17 128 24 642 11 780 -45 462 -167 988
-340 1470 -68 188 -205 535 -211 535 -3 0 -61 -31 -130 -68z"/>
<path d="M5985 5928 c-2 -7 -16 -60 -30 -118 -96 -388 -257 -825 -417 -1130
-268 -511 -560 -861 -1026 -1224 -62 -49 -111 -92 -110 -96 2 -4 59 -57 128
-117 414 -362 711 -817 949 -1457 95 -256 199 -653 238 -916 6 -37 13 -56 24
-58 9 -2 66 45 134 110 594 567 944 1217 1081 2008 48 280 54 741 13 1035
-100 709 -395 1342 -874 1875 -79 88 -103 107 -110 88z"/>
<path d="M3152 2758 c-304 -619 -805 -1297 -1490 -2016 l-132 -140 77 -49
c446 -285 923 -457 1463 -530 167 -22 646 -25 810 -5 305 37 720 140 917 227
l53 24 0 71 c0 163 -48 498 -105 737 -82 341 -237 725 -402 999 -170 281 -435
543 -719 710 -110 64 -335 174 -357 174 -10 0 -50 -71 -115 -202z"/>
</g>
</svg>
